<svg xmlns="http://www.w3.org/2000/svg" fill="none" viewBox="0 0 24 24">
  <path fill="#8FA0A8" d="M12 18h6v-5.8125c.0007-.1563-.0341-.1882-.1875-.1875H12v6Zm6 0v4.8095C18 23.467 18.533 24 19.1905 24H24v-4.8095C24 18.533 23.467 18 22.8095 18H18Z"/>
  <path fill="#8FA0A8" d="M24 10.8095V1.19048C24 .532994 23.467 0 22.8095 0H1.19048C.532994 0 0 .532994 0 1.19048V22.8095C0 23.467.532994 24 1.19048 24h9.61902C11.467 24 12 23.467 12 22.8095V18H6V6h12v6h4.8095C23.467 12 24 11.467 24 10.8095Z"/>
</svg>
